<svg height="512" viewBox="0 0 512 512" width="512" xmlns="http://www.w3.org/2000/svg"><g id="flat"><path d="m472 56v1.84a31.341 31.341 0 0 1 -.8 7.04 30.411 30.411 0 0 1 -1.49 4.84l-29.71 74.28h-80l-29.71-74.28a30.411 30.411 0 0 1 -1.49-4.84 31.341 31.341 0 0 1 -.8-7.04v-1.84a32 32 0 0 1 32-32h80a32 32 0 0 1 32 32z" fill="#ffc3d4"/><path d="m471.2 64.88a30.411 30.411 0 0 1 -1.49 4.84l-29.71 74.28h-80l-29.71-74.28a30.411 30.411 0 0 1 -1.49-4.84 32.012 32.012 0 0 1 31.2-24.88h80a32.012 32.012 0 0 1 31.2 24.88z" fill="#f9adb1"/><path d="m400 152a8 8 0 0 1 -8-8v-56a8 8 0 0 1 16 0v56a8 8 0 0 1 -8 8z" fill="#de9a9e"/><path d="m384 152a8 8 0 0 1 -7.688-5.8l-16-56a8 8 0 1 1 15.384-4.4l16 56a8.007 8.007 0 0 1 -7.696 10.2z" fill="#de9a9e"/><path d="m416 152a8.007 8.007 0 0 1 -7.7-10.2l16-56a8 8 0 1 1 15.384 4.4l-16 56a8 8 0 0 1 -7.684 5.8z" fill="#de9a9e"/><path d="m432 256h-64l-8-56v-56h80v56z" fill="#ebebeb"/><path d="m408 192a8 8 0 0 1 -8-8v-8a8 8 0 0 1 16 0v8a8 8 0 0 1 -8 8z" fill="#cdcdcd"/><path d="m408 264a8 8 0 0 1 -8-8v-40a8 8 0 0 1 16 0v40a8 8 0 0 1 -8 8z" fill="#cdcdcd"/><path d="m424 488h-48l-8-232h64z" fill="#8f563b"/><path d="m76 488h-40a12 12 0 0 1 -12-12v-68l8-32h48l8 32v68a12 12 0 0 1 -12 12z" fill="#da922a"/><path d="m56 336a8 8 0 0 1 -8-8v-136a8 8 0 0 1 16 0v136a8 8 0 0 1 -8 8z" fill="#b9b9b9"/><g fill="#878787"><path d="m72 288h-32a8 8 0 0 1 0-16h32a8 8 0 0 1 0 16z"/><path d="m80 240h-48a8 8 0 0 1 0-16h48a8 8 0 0 1 0 16z"/><path d="m80 264h-48a8 8 0 0 1 0-16h48a8 8 0 0 1 0 16z"/><path d="m72 216h-32a8 8 0 0 1 0-16h32a8 8 0 0 1 0 16z"/></g><circle cx="280" cy="368" fill="#de9a9e" r="104"/><path d="m352 368a72.042 72.042 0 0 1 -49.28 68.34 70.754 70.754 0 0 1 -10.62 2.64h-.01a72 72 0 1 1 -20.25-142.52 73.291 73.291 0 0 1 8.16-.46 71.775 71.775 0 0 1 49.34 19.57 71.841 71.841 0 0 1 22.66 52.43z" fill="#c0f5f9"/><path d="m176 432h208a0 0 0 0 1 0 0v20a36 36 0 0 1 -36 36h-136a36 36 0 0 1 -36-36v-20a0 0 0 0 1 0 0z" fill="#f9adb1"/><path d="m302.71 299.66-46.71 132.34h-9.01a72.164 72.164 0 0 1 -18.25-13.44l43.1-122.1.16-.46h8a71.66 71.66 0 0 1 22.71 3.66z" fill="#b3e4e8"/><path d="m341.01 329.75-37.48 104.94a7.668 7.668 0 0 1 -.81 1.65 7.983 7.983 0 0 1 -9.41 3.19 7.35 7.35 0 0 1 -1.21-.55h-.01a7.991 7.991 0 0 1 -3.62-9.67l40-112a7.865 7.865 0 0 1 .87-1.74 72.39 72.39 0 0 1 11.67 14.18z" fill="#b3e4e8"/><path d="m24 408h64l-8-32h-48z" fill="#f3af3e"/><path d="m36 328h40a4 4 0 0 1 4 4v44a0 0 0 0 1 0 0h-48a0 0 0 0 1 0 0v-44a4 4 0 0 1 4-4z" fill="#277baa"/><path d="m240 432h80a0 0 0 0 1 0 0 32 32 0 0 1 -32 32h-16a32 32 0 0 1 -32-32 0 0 0 0 1 0 0z" fill="#eea5a9"/><path d="m184 360v120a8 8 0 0 1 -8 8h-48a8 8 0 0 1 -8-8v-120z" fill="#277baa"/><path d="m128 328h48v32h-48z" fill="#f3af3e"/><path d="m128 328h32v32h-32z" fill="#ffb841"/><path d="m176 328h-48v-96h16a32 32 0 0 1 32 32z" fill="#dc4d41"/><path d="m128 232h16a32 32 0 0 1 32 32 0 0 0 0 1 0 0h-16a32 32 0 0 1 -32-32 0 0 0 0 1 0 0z" fill="#f55648"/><path d="m120 360h64v32h-64z" fill="#c38325"/><path d="m120 360h40v32h-40z" fill="#d18d28"/><path d="m184 392v88a8 8 0 0 1 -8 8h-16v-96z" fill="#24719c"/></g></svg>